<?xml version="1.0" encoding="UTF-8" standalone="no"?>
<svg
   xmlns:dc="http://purl.org/dc/elements/1.1/"
   xmlns:cc="http://creativecommons.org/ns#"
   xmlns:rdf="http://www.w3.org/1999/02/22-rdf-syntax-ns#"
   xmlns:svg="http://www.w3.org/2000/svg"
   xmlns="http://www.w3.org/2000/svg"
   xmlns:sodipodi="http://sodipodi.sourceforge.net/DTD/sodipodi-0.dtd"
   xmlns:inkscape="http://www.inkscape.org/namespaces/inkscape"
   inkscape:version="1.0 (4035a4fb49, 2020-05-01)"
   sodipodi:docname="ACMedonlylogo.svg"
   version="1.1"
   id="svg2"
   xml:space="preserve"
   width="182.02283"
   height="206.12357"
   viewBox="0 0 182.02283 206.12357"><sodipodi:namedview
     inkscape:current-layer="svg2"
     inkscape:window-maximized="1"
     inkscape:window-y="-8"
     inkscape:window-x="-8"
     inkscape:cy="103.06178"
     inkscape:cx="190.01552"
     inkscape:zoom="2.299065"
     fit-margin-bottom="0"
     fit-margin-right="0"
     fit-margin-left="0"
     fit-margin-top="0"
     showgrid="false"
     id="namedview33"
     inkscape:window-height="705"
     inkscape:window-width="1366"
     inkscape:pageshadow="2"
     inkscape:pageopacity="0"
     guidetolerance="10"
     gridtolerance="10"
     objecttolerance="10"
     borderopacity="1"
     bordercolor="#666666"
     pagecolor="#ffffff" /><metadata
     id="metadata8"><rdf:RDF><cc:Work
         rdf:about=""><dc:format>image/svg+xml</dc:format><dc:type
           rdf:resource="http://purl.org/dc/dcmitype/StillImage" /><dc:title></dc:title></cc:Work></rdf:RDF></metadata><defs
     id="defs6"><clipPath
       clipPathUnits="userSpaceOnUse"
       id="clipPath18"><path
         d="M 0,1.2207e-4 H 960 V 540.00012 H 0 Z"
         id="path16"
         style="clip-rule:evenodd" /></clipPath><clipPath
       clipPathUnits="userSpaceOnUse"
       id="clipPath28"><path
         d="M 1.4305e-5,0 H 960.00001 V 540 H 1.4305e-5 Z"
         id="path26"
         style="clip-rule:evenodd" /></clipPath><clipPath
       clipPathUnits="userSpaceOnUse"
       id="clipPath42"><path
         d="M -3.0518e-5,540 H 960 V 6.1035e-5 H -4.5776e-5"
         id="path40"
         style="clip-rule:evenodd" /></clipPath><clipPath
       clipPathUnits="userSpaceOnUse"
       id="clipPath54"><path
         d="M -3.0518e-5,540 H 960 V 2.4414e-4 L 0,1.2207e-4"
         id="path52"
         style="clip-rule:evenodd" /></clipPath><clipPath
       clipPathUnits="userSpaceOnUse"
       id="clipPath64"><path
         d="M 1.4305e-5,0 H 960.00001 V 540 H 1.4305e-5 Z"
         id="path62"
         style="clip-rule:evenodd" /></clipPath><clipPath
       clipPathUnits="userSpaceOnUse"
       id="clipPath76"><path
         d="M 1.4305e-5,0 H 960.00001 V 540 H 1.4305e-5 Z"
         id="path74"
         style="clip-rule:evenodd" /></clipPath><clipPath
       clipPathUnits="userSpaceOnUse"
       id="clipPath88"><path
         d="M 1.4305e-5,0 H 960.00001 V 540 H 1.4305e-5 Z"
         id="path86"
         style="clip-rule:evenodd" /></clipPath></defs><g
     transform="translate(-155.12089,-99.009798)"
     id="layer3" /><g
     transform="translate(-155.12089,-99.009798)"
     id="g1148"><g
       id="g1141"><path
         style="fill:#4caf50;fill-opacity:1;fill-rule:evenodd;stroke:none;stroke-width:0.303867;stroke-linecap:square;stroke-linejoin:bevel;stroke-miterlimit:4;stroke-dasharray:none;stroke-opacity:1;paint-order:stroke markers fill"
         d="m 155.12283,198.89478 0.0459,-50.77112 42.84312,-24.59474 c 23.56372,-13.52711 43.05352,-24.384387 43.31062,-24.127277 0.3867,0.38678 -83.94487,147.647857 -85.68894,149.631187 -0.30618,0.34818 -0.53601,-22.21395 -0.51074,-50.13805 z"
         id="path923" /><path
         style="fill:#3f51b5;fill-opacity:1;fill-rule:evenodd;stroke:none;stroke-width:0.303867;stroke-linecap:square;stroke-linejoin:bevel;stroke-miterlimit:4;stroke-dasharray:none;stroke-opacity:1;paint-order:stroke markers fill"
         d="m 293.19277,174.63007 c -23.8946,-41.31883 -43.2738,-75.345337 -43.065,-75.614477 0.471,-0.60681 82.7408,46.640357 85.3913,49.039817 1.4893,1.34822 1.8303,12.9568 1.5194,51.71909 l -0.401,49.98069 z"
         id="path925" /><path
         style="fill:#ffeb3b;fill-opacity:1;fill-rule:evenodd;stroke:none;stroke-width:0.303867;stroke-linecap:square;stroke-linejoin:bevel;stroke-miterlimit:4;stroke-dasharray:none;stroke-opacity:1;paint-order:stroke markers fill"
         d="m 214.33096,288.37182 c -17.13051,-9.93145 -36.95783,-21.433 -44.06072,-25.55901 l -12.91435,-7.50184 88.80698,-0.0371 88.8069,-0.0371 -40.9479,23.68565 c -22.5213,13.0271 -42.6571,24.54535 -44.7462,25.5961 -3.5299,1.77544 -5.9996,0.63426 -34.94471,-16.14671 z"
         id="path927" /></g><path
       id="path1121"
       d="m 201.67531,231.8554 c 0.0534,-0.13227 8.86389,-15.4192 19.57882,-33.97095 l 19.48168,-33.73046 5.2932,-0.0504 5.29319,-0.0504 19.27737,33.4008 c 10.60256,18.37043 19.4385,33.67871 19.63543,34.01839 l 0.35804,0.6176 -5.48215,-8e-5 -5.48216,-8e-5 -16.7227,-28.97683 c -9.19749,-15.93725 -16.78864,-28.9561 -16.86923,-28.93077 -0.0806,0.0253 -7.65074,13.04356 -16.82257,28.9294 l -16.67605,28.88334 -5.48,0.0505 c -4.35994,0.0401 -5.46015,0.001 -5.38287,-0.19003 z"
       style="fill:#3f939b;fill-opacity:1;fill-rule:nonzero;stroke:none;stroke-width:0.00285046;stroke-linecap:square;stroke-linejoin:bevel;stroke-miterlimit:4;stroke-dasharray:none;stroke-opacity:1;paint-order:stroke markers fill" /></g></svg>
